<svg width="190" height="129" viewBox="0 0 190 129" fill="none" xmlns="http://www.w3.org/2000/svg">
<path d="M174.325 44.3515C171.51 44.1936 168.704 44.7836 166.191 46.0616C163.679 47.3397 161.549 49.2602 160.019 51.6279C158.614 53.6795 156.721 55.3491 154.51 56.4861C152.298 57.6231 149.839 58.1918 147.353 58.1408H134.102C131.62 58.188 129.165 57.6176 126.958 56.4807C124.751 55.3439 122.861 53.6763 121.458 51.6279C119.926 49.2568 117.793 47.3341 115.276 46.0559C112.759 44.7776 109.948 44.1895 107.13 44.3515C103.007 44.6525 99.1589 46.5321 96.3868 49.599C93.6147 52.6658 92.1322 56.6837 92.248 60.8161C92.3638 64.9485 94.0688 68.8771 97.0082 71.784C99.9476 74.6908 103.895 76.3521 108.028 76.4219C110.403 76.4184 112.748 75.8866 114.892 74.865C117.036 73.8434 118.926 72.3576 120.425 70.5153C121.766 68.952 123.436 67.7044 125.315 66.8619C127.194 66.0194 129.236 65.6027 131.295 65.6419H150.227C152.284 65.6176 154.321 66.048 156.192 66.9021C158.063 67.7562 159.723 69.013 161.052 70.5827C163.158 73.1726 166.021 75.0396 169.24 75.9225C172.46 76.8054 175.874 76.6602 179.007 75.5071C182.14 74.354 184.834 72.2507 186.712 69.4913C188.591 66.7319 189.56 63.4544 189.484 60.1172C189.381 56.0715 187.768 52.2108 184.963 49.2936C182.158 46.3764 178.364 44.6136 174.325 44.3515ZM107.983 68.8983C106.296 68.8983 104.646 68.3978 103.242 67.4601C101.839 66.5223 100.745 65.1895 100.099 63.6301C99.453 62.0707 99.284 60.3547 99.6133 58.6993C99.9426 57.0438 100.755 55.5232 101.949 54.3297C103.142 53.1362 104.663 52.3234 106.319 51.9941C107.974 51.6648 109.69 51.8338 111.249 52.4797C112.809 53.1257 114.142 54.2195 115.079 55.6229C116.017 57.0263 116.518 58.6763 116.518 60.3642C116.512 62.6258 115.611 64.793 114.011 66.3922C112.412 67.9914 110.245 68.8924 107.983 68.8983ZM173.449 68.8983C171.762 68.8939 170.115 68.3896 168.714 67.4492C167.314 66.5088 166.223 65.1743 165.581 63.6145C164.938 62.0547 164.772 60.3395 165.104 58.6856C165.436 57.0316 166.251 55.5131 167.445 54.3218C168.639 53.1305 170.16 52.3199 171.815 51.9924C173.47 51.665 175.185 51.8353 176.743 52.4819C178.301 53.1284 179.632 54.2223 180.569 55.6252C181.506 57.0282 182.006 58.6773 182.006 60.3642C182.006 61.4868 181.784 62.5984 181.354 63.6353C180.924 64.6722 180.293 65.6139 179.498 66.4067C178.703 67.1994 177.76 67.8276 176.722 68.2552C175.684 68.6827 174.572 68.9013 173.449 68.8983Z" fill="white"/>
<path d="M174.325 44.3515C171.51 44.1936 168.704 44.7836 166.191 46.0616C163.679 47.3397 161.549 49.2602 160.019 51.6279C158.614 53.6795 156.721 55.3491 154.51 56.4861C152.298 57.6231 149.839 58.1918 147.353 58.1408H134.102C131.62 58.188 129.165 57.6176 126.958 56.4807C124.751 55.3439 122.861 53.6763 121.458 51.6279C119.926 49.2568 117.793 47.3341 115.276 46.0559C112.759 44.7776 109.948 44.1895 107.13 44.3515C103.007 44.6525 99.1589 46.5321 96.3868 49.599C93.6147 52.6658 92.1322 56.6837 92.248 60.8161C92.3638 64.9485 94.0688 68.8771 97.0082 71.784C99.9476 74.6908 103.895 76.3521 108.028 76.4219C110.403 76.4184 112.748 75.8866 114.892 74.865C117.036 73.8434 118.926 72.3576 120.425 70.5153C121.766 68.952 123.436 67.7044 125.315 66.8619C127.194 66.0194 129.236 65.6027 131.295 65.6419H150.227C152.284 65.6176 154.321 66.048 156.192 66.9021C158.063 67.7562 159.723 69.013 161.052 70.5827C163.158 73.1726 166.021 75.0396 169.24 75.9225C172.46 76.8054 175.874 76.6602 179.007 75.5071C182.14 74.354 184.834 72.2507 186.712 69.4913C188.591 66.7319 189.56 63.4544 189.484 60.1172C189.381 56.0715 187.768 52.2108 184.963 49.2936C182.158 46.3764 178.364 44.6136 174.325 44.3515ZM107.983 68.8983C106.296 68.8983 104.646 68.3978 103.242 67.4601C101.839 66.5223 100.745 65.1895 100.099 63.6301C99.453 62.0707 99.284 60.3547 99.6133 58.6993C99.9426 57.0438 100.755 55.5232 101.949 54.3297C103.142 53.1362 104.663 52.3234 106.319 51.9941C107.974 51.6648 109.69 51.8338 111.249 52.4797C112.809 53.1257 114.142 54.2195 115.079 55.6229C116.017 57.0263 116.518 58.6763 116.518 60.3642C116.512 62.6258 115.611 64.793 114.011 66.3922C112.412 67.9914 110.245 68.8924 107.983 68.8983ZM173.449 68.8983C171.762 68.8939 170.115 68.3896 168.714 67.4492C167.314 66.5088 166.223 65.1743 165.581 63.6145C164.938 62.0547 164.772 60.3395 165.104 58.6856C165.436 57.0316 166.251 55.5131 167.445 54.3218C168.639 53.1305 170.16 52.3199 171.815 51.9924C173.47 51.665 175.185 51.8353 176.743 52.4819C178.301 53.1284 179.632 54.2223 180.569 55.6252C181.506 57.0282 182.006 58.6773 182.006 60.3642C182.006 61.4868 181.784 62.5984 181.354 63.6353C180.924 64.6722 180.293 65.6139 179.498 66.4067C178.703 67.1994 177.76 67.8276 176.722 68.2552C175.684 68.6827 174.572 68.9013 173.449 68.8983Z" fill="white"/>
<path d="M45.1664 66.763C45.7128 66.7642 46.253 66.6459 46.7489 66.4166C47.2449 66.1872 47.6847 65.8523 48.0377 65.4351C48.3907 65.018 48.6482 64.5287 48.7923 64.0016C48.9364 63.4745 48.9636 62.9223 48.872 62.3836C48.6884 61.4885 48.1969 60.6861 47.483 60.1158C46.7691 59.5454 45.8778 59.2433 44.9643 59.2619H40.6299C38.3348 59.219 36.0874 58.6002 34.0939 57.4622C32.1004 56.3242 30.4248 54.7035 29.2211 52.749C27.6891 50.3779 25.556 48.4552 23.0389 47.177C20.5219 45.8987 17.711 45.3106 14.8927 45.4726C10.7708 45.7724 6.92314 47.6499 4.15036 50.7146C1.37759 53.7792 -0.106838 57.795 0.00599136 61.9263C0.118821 66.0576 1.82021 69.9863 4.75613 72.895C7.69204 75.8038 11.6364 77.4686 15.7686 77.543C18.1439 77.541 20.489 77.0099 22.6334 75.9882C24.7778 74.9665 26.6676 73.4799 28.1655 71.6364C29.3251 70.15 30.8019 68.941 32.4881 68.0979C34.1743 67.2548 36.0275 66.7987 37.9124 66.763H45.1664ZM15.7686 70.0194C14.0816 70.015 12.4339 69.5107 11.0334 68.5703C9.63293 67.6298 8.54258 66.2954 7.9001 64.7356C7.25761 63.1758 7.0918 61.4606 7.42363 59.8067C7.75545 58.1527 8.57 56.6342 9.76441 55.4429C10.9588 54.2516 12.4795 53.441 14.1343 53.1135C15.7892 52.786 17.504 52.9564 19.0621 53.6029C20.6202 54.2495 21.9517 55.3434 22.8884 56.7463C23.8252 58.1493 24.3251 59.7984 24.3252 61.4853C24.3252 62.6079 24.1037 63.7195 23.6734 64.7564C23.2431 65.7933 22.6125 66.735 21.8177 67.5278C21.0228 68.3205 20.0794 68.9487 19.0414 69.3763C18.0033 69.8038 16.8912 70.0224 15.7686 70.0194Z" fill="white"/>
<path d="M45.1664 66.763C45.7128 66.7642 46.253 66.6459 46.7489 66.4166C47.2449 66.1872 47.6847 65.8523 48.0377 65.4351C48.3907 65.018 48.6482 64.5287 48.7923 64.0016C48.9364 63.4745 48.9636 62.9223 48.872 62.3836C48.6884 61.4885 48.1969 60.6861 47.483 60.1158C46.7691 59.5454 45.8778 59.2433 44.9643 59.2619H40.6299C38.3348 59.219 36.0874 58.6002 34.0939 57.4622C32.1004 56.3242 30.4248 54.7035 29.2211 52.749C27.6891 50.3779 25.556 48.4552 23.0389 47.177C20.5219 45.8987 17.711 45.3106 14.8927 45.4726C10.7708 45.7724 6.92314 47.6499 4.15036 50.7146C1.37759 53.7792 -0.106838 57.795 0.00599136 61.9263C0.118821 66.0576 1.82021 69.9863 4.75613 72.895C7.69204 75.8038 11.6364 77.4686 15.7686 77.543C18.1439 77.541 20.489 77.0099 22.6334 75.9882C24.7778 74.9665 26.6676 73.4799 28.1655 71.6364C29.3251 70.15 30.8019 68.941 32.4881 68.0979C34.1743 67.2548 36.0275 66.7987 37.9124 66.763H45.1664ZM15.7686 70.0194C14.0816 70.015 12.4339 69.5107 11.0334 68.5703C9.63293 67.6298 8.54258 66.2954 7.9001 64.7356C7.25761 63.1758 7.0918 61.4606 7.42363 59.8067C7.75545 58.1527 8.57 56.6342 9.76441 55.4429C10.9588 54.2516 12.4795 53.441 14.1343 53.1135C15.7892 52.786 17.504 52.9564 19.0621 53.6029C20.6202 54.2495 21.9517 55.3434 22.8884 56.7463C23.8252 58.1493 24.3251 59.7984 24.3252 61.4853C24.3252 62.6079 24.1037 63.7195 23.6734 64.7564C23.2431 65.7933 22.6125 66.735 21.8177 67.5278C21.0228 68.3205 20.0794 68.9487 19.0414 69.3763C18.0033 69.8038 16.8912 70.0224 15.7686 70.0194Z" fill="white"/>
<path d="M98.1686 30.0228C105.901 30.0484 113.4 32.6747 119.459 37.4789C120.504 38.2356 121.8 38.56 123.078 38.3844C124.356 38.2088 125.517 37.5467 126.319 36.5363C127.121 35.5258 127.503 34.2448 127.383 32.9603C127.264 31.6757 126.654 30.4867 125.68 29.641C118.923 24.2668 110.74 20.9902 102.142 20.2161C93.5435 19.4419 84.9068 21.2042 77.299 25.2851C69.6913 29.3661 63.446 35.5867 59.3351 43.1783C55.2242 50.7699 53.4279 59.3997 54.1681 68.001C54.9083 76.6024 58.1526 84.7984 63.5 91.576C68.8475 98.3537 76.0637 103.416 84.2568 106.137C92.4499 108.858 101.261 109.119 109.6 106.887C117.94 104.656 125.443 100.029 131.182 93.5796C131.625 93.0885 131.966 92.5152 132.187 91.8922C132.407 91.2692 132.503 90.6089 132.469 89.9488C132.435 89.2888 132.271 88.642 131.986 88.0453C131.702 87.4487 131.303 86.914 130.812 86.4716C130.321 86.0292 129.747 85.6878 129.124 85.467C128.501 85.2462 127.841 85.1503 127.181 85.1847C126.521 85.2191 125.874 85.3832 125.277 85.6676C124.681 85.952 124.146 86.351 123.704 86.8421C119.92 91.1228 115.123 94.3868 109.752 96.3356C104.382 98.2844 98.6082 98.8559 92.9597 97.9979C87.3111 97.1398 81.9678 94.8796 77.4181 91.4238C72.8684 87.968 69.2575 83.4269 66.9155 78.2156C64.5735 73.0043 63.5751 67.2891 64.0117 61.5925C64.4482 55.8958 66.3057 50.3995 69.4144 45.6059C72.523 40.8122 76.7837 36.8744 81.8068 34.1521C86.8299 31.4299 92.4552 30.0102 98.1686 30.0228Z" fill="white"/>
<path d="M98.1686 30.0228C105.901 30.0484 113.4 32.6747 119.459 37.4789C120.504 38.2356 121.8 38.56 123.078 38.3844C124.356 38.2088 125.517 37.5467 126.319 36.5363C127.121 35.5258 127.503 34.2448 127.383 32.9603C127.264 31.6757 126.654 30.4867 125.68 29.641C118.923 24.2668 110.74 20.9902 102.142 20.2161C93.5435 19.4419 84.9068 21.2042 77.299 25.2851C69.6913 29.3661 63.446 35.5867 59.3351 43.1783C55.2242 50.7699 53.4279 59.3997 54.1681 68.001C54.9083 76.6024 58.1526 84.7984 63.5 91.576C68.8475 98.3537 76.0637 103.416 84.2568 106.137C92.4499 108.858 101.261 109.119 109.6 106.887C117.94 104.656 125.443 100.029 131.182 93.5796C131.625 93.0885 131.966 92.5152 132.187 91.8922C132.407 91.2692 132.503 90.6089 132.469 89.9488C132.435 89.2888 132.271 88.642 131.986 88.0453C131.702 87.4487 131.303 86.914 130.812 86.4716C130.321 86.0292 129.747 85.6878 129.124 85.467C128.501 85.2462 127.841 85.1503 127.181 85.1847C126.521 85.2191 125.874 85.3832 125.277 85.6676C124.681 85.952 124.146 86.351 123.704 86.8421C119.92 91.1228 115.123 94.3868 109.752 96.3356C104.382 98.2844 98.6082 98.8559 92.9597 97.9979C87.3111 97.1398 81.9678 94.8796 77.4181 91.4238C72.8684 87.968 69.2575 83.4269 66.9155 78.2156C64.5735 73.0043 63.5751 67.2891 64.0117 61.5925C64.4482 55.8958 66.3057 50.3995 69.4144 45.6059C72.523 40.8122 76.7837 36.8744 81.8068 34.1521C86.8299 31.4299 92.4552 30.0102 98.1686 30.0228Z" fill="white"/>
<path d="M156.785 73.2944C155.495 72.9831 154.135 73.1961 153.002 73.8866C151.87 74.5771 151.057 75.6888 150.744 76.9776C147.862 88.8073 141.081 99.3221 131.494 106.827C121.906 114.332 110.07 118.389 97.8948 118.345C85.7193 118.301 73.9133 114.158 64.3803 106.584C54.8472 99.0097 48.1425 88.4461 45.347 76.5958C45.1996 75.9572 44.9278 75.3541 44.5472 74.8206C44.1666 74.2871 43.6847 73.8338 43.1289 73.4866C42.5732 73.1393 41.9544 72.905 41.3081 72.7969C40.6617 72.6888 40.0004 72.709 39.3619 72.8565C38.7234 73.004 38.1202 73.2758 37.5867 73.6563C37.0532 74.0369 36.5999 74.5188 36.2527 75.0746C35.9055 75.6303 35.6711 76.2491 35.563 76.8954C35.4549 77.5417 35.4751 78.2031 35.6226 78.8416C38.9294 92.8828 46.8697 105.401 58.1627 114.376C69.4557 123.352 83.4429 128.261 97.8681 128.313C112.293 128.365 126.316 123.556 137.673 114.662C149.03 105.768 157.06 93.3078 160.468 79.2908C160.772 78.0074 160.555 76.6557 159.865 75.5319C159.175 74.408 158.067 73.6035 156.785 73.2944Z" fill="white"/>
<path d="M156.785 73.2944C155.495 72.9831 154.135 73.1961 153.002 73.8866C151.87 74.5771 151.057 75.6888 150.744 76.9776C147.862 88.8073 141.081 99.3221 131.494 106.827C121.906 114.332 110.07 118.389 97.8948 118.345C85.7193 118.301 73.9133 114.158 64.3803 106.584C54.8472 99.0097 48.1425 88.4461 45.347 76.5958C45.1996 75.9572 44.9278 75.3541 44.5472 74.8206C44.1666 74.2871 43.6847 73.8338 43.1289 73.4866C42.5732 73.1393 41.9544 72.905 41.3081 72.7969C40.6617 72.6888 40.0004 72.709 39.3619 72.8565C38.7234 73.004 38.1202 73.2758 37.5867 73.6563C37.0532 74.0369 36.5999 74.5188 36.2527 75.0746C35.9055 75.6303 35.6711 76.2491 35.563 76.8954C35.4549 77.5417 35.4751 78.2031 35.6226 78.8416C38.9294 92.8828 46.8697 105.401 58.1627 114.376C69.4557 123.352 83.4429 128.261 97.8681 128.313C112.293 128.365 126.316 123.556 137.673 114.662C149.03 105.768 157.06 93.3078 160.468 79.2908C160.772 78.0074 160.555 76.6557 159.865 75.5319C159.175 74.408 158.067 73.6035 156.785 73.2944Z" fill="white"/>
<path d="M40.1589 51.0416C40.6537 51.1928 41.1686 51.2685 41.6861 51.2661C42.7467 51.2678 43.7803 50.9312 44.6365 50.3052C45.4928 49.6792 46.1271 48.7964 46.4472 47.7851C49.8858 36.961 56.6383 27.4908 65.7507 20.7122C74.8632 13.9337 85.875 10.1893 97.2307 10.0081C108.586 9.82692 119.712 13.218 129.036 19.7024C138.36 26.1868 145.411 35.4368 149.194 46.1457C149.194 46.3029 149.194 46.4826 149.373 46.6622C149.59 47.2816 149.927 47.8521 150.364 48.3414C150.801 48.8306 151.331 49.229 151.922 49.5137C152.513 49.7983 153.155 49.9637 153.81 50.0005C154.465 50.0372 155.121 49.9445 155.74 49.7278C156.36 49.511 156.93 49.1743 157.419 48.7371C157.909 48.2998 158.307 47.7704 158.592 47.1792C158.876 46.588 159.042 45.9465 159.078 45.2914C159.115 44.6362 159.023 43.9802 158.806 43.3609C158.806 43.1812 158.693 43.0015 158.626 42.7994C154.141 30.1165 145.785 19.1628 134.738 11.4848C123.692 3.80681 110.513 -0.207637 97.0617 0.00827427C83.6107 0.224185 70.5673 4.65954 59.7729 12.6881C48.9785 20.7167 40.9786 31.9329 36.9024 44.7533C36.5068 46.019 36.627 47.3898 37.2368 48.5674C37.8466 49.7451 38.8968 50.6342 40.1589 51.0416Z" fill="white"/>
<path d="M40.1589 51.0416C40.6537 51.1928 41.1686 51.2685 41.6861 51.2661C42.7467 51.2678 43.7803 50.9312 44.6365 50.3052C45.4928 49.6792 46.1271 48.7964 46.4472 47.7851C49.8858 36.961 56.6383 27.4908 65.7507 20.7122C74.8632 13.9337 85.875 10.1893 97.2307 10.0081C108.586 9.82692 119.712 13.218 129.036 19.7024C138.36 26.1868 145.411 35.4368 149.194 46.1457C149.194 46.3029 149.194 46.4826 149.373 46.6622C149.59 47.2816 149.927 47.8521 150.364 48.3414C150.801 48.8306 151.331 49.229 151.922 49.5137C152.513 49.7983 153.155 49.9637 153.81 50.0005C154.465 50.0372 155.121 49.9445 155.74 49.7278C156.36 49.511 156.93 49.1743 157.419 48.7371C157.909 48.2998 158.307 47.7704 158.592 47.1792C158.876 46.588 159.042 45.9465 159.078 45.2914C159.115 44.6362 159.023 43.9802 158.806 43.3609C158.806 43.1812 158.693 43.0015 158.626 42.7994C154.141 30.1165 145.785 19.1628 134.738 11.4848C123.692 3.80681 110.513 -0.207637 97.0617 0.00827427C83.6107 0.224185 70.5673 4.65954 59.7729 12.6881C48.9785 20.7167 40.9786 31.9329 36.9024 44.7533C36.5068 46.019 36.627 47.3898 37.2368 48.5674C37.8466 49.7451 38.8968 50.6342 40.1589 51.0416Z" fill="white"/>
</svg>
